<?xml version="1.0" encoding="utf-8"?>
<!-- Generator: Adobe Illustrator 27.1.1, SVG Export Plug-In . SVG Version: 6.00 Build 0)  -->
<svg version="1.1" id="Layer_1" xmlns="http://www.w3.org/2000/svg" xmlns:xlink="http://www.w3.org/1999/xlink" x="0px" y="0px"
	 viewBox="0 0 300 90" style="enable-background:new 0 0 300 90;" xml:space="preserve">
<style type="text/css">
	.st0{fill:#FFFFFF;}
	.st1{fill:#FB672C;}
	.st2{fill:#FB4B60;}
	.st3{fill:#F5A800;}
	.st4{fill:#00ADBB;}
</style>
<g>
	<g>
		<path class="st0" d="M104.32,34.96c0.36-0.34,0.71-0.76,1.05-1.27c0.8-1.17,1.17-2.18,1.17-3.15c0-1.78-1.33-3.01-1.78-3.43
			c-0.06-0.06-0.12-0.11-0.19-0.15l-0.7-0.54c-0.66-0.54-1.58-0.99-2.89-1.39c-1.22-0.39-2.56-0.57-4-0.57c-2.86,0-5.21,0.87-7,2.58
			c-0.39-0.46-0.88-0.91-1.48-1.33c-0.05-0.03-0.08-0.05-0.12-0.08c-1.27-0.79-2.24-1.14-3.15-1.14c-0.9,0-1.76,0.26-2.49,0.76
			c-0.6,0.4-1.14,1.03-1.75,1.96l-2.18,3.48l-2.18-3.48c0,0,0-0.02-0.02-0.02c-0.57-0.91-1.17-1.56-1.81-1.99
			c-0.68-0.46-1.51-0.71-2.43-0.71c-0.97,0-1.98,0.4-3.37,1.33c-0.91,0.6-1.5,1.25-1.87,1.88c-2.46-2.09-5.33-3.15-8.56-3.15
			c-1.71,0-3.38,0.36-4.99,1.03c-1.19,0.51-2.3,1.19-3.29,2.01c-0.32-1.02-1.02-1.84-1.96-2.3c-0.7-0.34-1.51-0.51-2.6-0.51H29.6
			c-1.08,0-1.96,0.19-2.72,0.56c-0.9,0.45-1.56,1.25-1.88,2.24c-0.19,0.59-0.28,1.25-0.28,2.05s0.09,1.47,0.26,2.04
			c0.32,1.02,1.02,1.85,1.98,2.33c0.7,0.34,1.51,0.51,2.6,0.51h2.83v11.85c0,0.57,0.02,1,0.06,1.36c0.08,0.54,0.25,1.1,0.54,1.65
			c0.48,0.93,1.3,1.61,2.35,1.95c0.63,0.2,1.39,0.31,2.29,0.31c0.9,0,1.64-0.09,2.29-0.31c1.08-0.34,1.9-1.02,2.38-1.96
			c0.29-0.57,0.46-1.1,0.54-1.62c0.05-0.34,0.06-0.77,0.06-1.36V34.49h2.81c0.06,0,0.14,0,0.2,0c-0.34,1.25-0.53,2.56-0.53,3.91
			c0,3.68,1.3,6.87,3.88,9.53c2.55,2.64,5.84,4.03,9.49,4.03c3.68,0,6.94-1.42,9.46-4.11c2.22-2.39,3.48-5.25,3.71-8.53l1.54,2.32
			v4.67c0,0.6,0.02,1.03,0.06,1.39c0.08,0.54,0.26,1.11,0.56,1.67c0.49,0.96,1.34,1.65,2.39,1.99c0.65,0.2,1.39,0.31,2.32,0.31
			c0.91,0,1.65-0.09,2.3-0.29c1.07-0.34,1.88-1,2.38-1.95c0.32-0.6,0.51-1.16,0.57-1.71c0.05-0.36,0.06-0.79,0.06-1.36v-4.71
			l3.41-5.11c0.17,0.56,0.4,1.08,0.66,1.56c0.36,0.63,0.76,1.17,1.21,1.67c-0.2,0.15-0.4,0.31-0.59,0.49l-0.02,0.02
			c-0.9,0.87-2.09,2.22-2.09,3.92c0,1.14,0.46,2.29,1.38,3.41l0.2,0.25c0.63,0.87,1.58,1.67,2.87,2.47
			c0.74,0.48,1.65,0.87,2.72,1.16c1.05,0.29,2.16,0.43,3.31,0.43c2.32,0,4.51-0.66,6.52-1.98c1.21-0.79,2.19-1.87,2.92-3.26
			c0.71-1.36,1.07-2.9,1.07-4.6c0-1.75-0.37-3.27-1.1-4.54C106.05,36.41,105.24,35.56,104.32,34.96z"/>
		<path class="st0" d="M268.87,28.81L268.87,28.81c-0.08-0.57-0.26-1.14-0.57-1.73c-0.79-1.5-2.36-2.26-4.68-2.26
			c-2.15,0-3.68,0.65-4.56,1.92c-0.87,1.08-2.33,3-4.39,5.72l-4.4-5.78c-0.06-0.09-0.14-0.17-0.22-0.25l-0.15-0.15
			c-0.59-0.63-1.34-0.94-1.88-1.11c-0.66-0.22-1.41-0.32-2.22-0.32c-2.27,0-3.83,0.73-4.65,2.15c-0.02,0.02-0.03,0.05-0.03,0.06
			c-0.31,0.59-0.51,1.16-0.59,1.71c-0.02,0.12-0.03,0.26-0.05,0.42c-0.22-0.25-0.45-0.49-0.68-0.73l0,0
			c-2.64-2.58-5.79-3.89-9.39-3.89c-1.71,0-3.38,0.36-4.99,1.03c-1.56,0.68-2.97,1.62-4.19,2.8c-0.97,0.96-1.79,2.1-2.46,3.38
			c-0.63-1.16-1.47-2.22-2.47-3.17c-2.64-2.52-5.78-3.8-9.29-3.8l-5.39-0.03c-0.49,0-0.96,0.03-1.38,0.11
			c0.4-2.98-0.08-4.43-0.54-5.31c-0.83-1.58-2.3-2.6-4.03-2.81c-1.65-0.22-3.32,0.19-5.86,2.38c-0.51-1.47-1.16-2.55-1.98-3.31
			c-1.14-1.05-2.6-1.59-4.11-1.51c-2.05,0.11-3.69,1.16-5.08,3.34c-0.93-0.97-1.78-1.36-2.58-1.61c-1.73-0.53-3.6-0.14-4.99,1
			c-1.25,1.03-2.1,2.66-2.56,4.93c-0.39-0.03-0.79-0.03-1.19,0.02c-2.16,0.25-3.97,1.65-4.74,3.68c-0.05,0.11-0.08,0.2-0.11,0.31
			c0,0,0,0-0.02-0.02c-0.46-0.37-1.04-0.66-1.75-0.87c-0.59-0.17-1.28-0.25-2.09-0.25c-0.83,0-1.58,0.11-2.21,0.29
			c-1.05,0.32-1.88,1.02-2.43,1.99c-0.42,0.77-0.62,1.7-0.62,2.92v1.58c-0.97-1.31-2.05-2.78-3.24-4.4
			c-0.03-0.03-0.06-0.08-0.09-0.11c-0.53-0.63-0.76-0.88-0.96-1.05c-0.45-0.4-1-0.71-1.73-0.94c-0.62-0.19-1.33-0.28-2.19-0.28
			s-1.61,0.09-2.26,0.31c-0.66,0.22-1.24,0.56-1.71,1.03c-0.76-0.74-1.99-1.37-4.03-1.37c-2.01,0-3.46,0.56-4.33,1.67
			c-0.15-0.15-0.29-0.26-0.39-0.36c-0.83-0.71-2.12-1.67-3.71-1.67c-2.02,0-3.41,1.62-3.86,2.15c-0.51,0.6-1.07,1.24-1.67,1.93
			c-0.05-0.25-0.09-0.48-0.15-0.7c-0.02-0.05-0.03-0.08-0.05-0.12c-0.39-1.08-1.54-2.92-5.01-2.92c-2.33,0-3.91,0.76-4.7,2.26
			c-0.31,0.59-0.51,1.16-0.57,1.7c-0.05,0.36-0.06,0.79-0.06,1.36v16.16c0,1,0.11,1.76,0.32,2.36c0.37,1.14,1.53,2.97,4.99,2.97
			c2.33,0,3.91-0.76,4.7-2.26c0.28-0.53,0.46-1.03,0.54-1.53l1.67,1.9c0.48,0.56,1.87,2.18,3.86,2.18c1.58,0,2.87-0.96,3.69-1.67
			c0.09-0.08,0.23-0.2,0.37-0.34c0.71,0.88,1.98,1.71,4.31,1.71c1.81,0,3.15-0.45,4.03-1.34c0.88,0.9,2.21,1.34,3.99,1.34
			c2.33,0,3.92-0.76,4.7-2.26c0.31-0.57,0.49-1.13,0.57-1.67c0.05-0.36,0.06-0.77,0.06-1.39V44.9c1.08,1.42,2.3,3.06,3.66,4.87
			l0.02,0.02c0.49,0.63,1.14,1.14,1.88,1.44c0.65,0.26,1.44,0.37,2.6,0.37c1.47,0,2.64-0.29,3.49-0.9c0.53,0.56,1.17,0.99,1.92,1.27
			c1.24,0.45,2.56,0.39,3.75-0.17c0,0,0,0,0.02,0c0.05-0.02,0.77-0.36,1.93-0.87c3.01,2.16,6.77,3.46,10.97,3.78
			c0.66,0.05,1.34,0.08,2.02,0.08c6.13,0,11.54-2.13,14.17-5.48c0.03,0.05,0.05,0.11,0.08,0.15c0.02,0.02,0.02,0.03,0.03,0.05
			c0.82,1.37,2.36,2.05,4.57,2.05h5.31c3.71,0,6.92-1.34,9.53-3.99c0.91-0.91,1.65-1.9,2.24-2.95c0.6,1.17,1.41,2.27,2.39,3.29
			c2.6,2.67,5.78,4.03,9.49,4.03c3.68,0,6.94-1.42,9.46-4.11c0.15-0.17,0.31-0.34,0.46-0.53c0.02,0.11,0.02,0.22,0.03,0.31
			c0.08,0.59,0.28,1.19,0.6,1.76c0.82,1.45,2.36,2.18,4.6,2.18c2.29,0,3.85-0.74,4.67-2.19c0.34-0.59,0.53-1.16,0.6-1.73
			c0.05-0.36,0.06-0.79,0.06-1.36v-1.59c0.29,0.26,0.65,0.51,1.05,0.74c0.77,0.45,1.64,0.66,2.55,0.66c0.94,0,1.82-0.25,2.61-0.71
			c0.4-0.23,0.73-0.46,0.99-0.68v1.53c0,0.99,0.08,1.7,0.26,2.32c0.02,0.06,0.03,0.12,0.06,0.19c0.28,0.71,0.71,1.33,1.28,1.76
			c0.46,0.36,1,0.62,1.67,0.82c0.6,0.17,1.27,0.26,2.12,0.26c0.83,0,1.58-0.11,2.22-0.31c0.91-0.29,3.03-1.34,3.03-4.97V30.17
			C268.93,29.6,268.9,29.16,268.87,28.81z"/>
	</g>
	<g>
		<path class="st1" d="M48.13,29.64c0-0.54-0.05-0.96-0.15-1.3c-0.12-0.39-0.36-0.66-0.73-0.85c-0.34-0.17-0.82-0.25-1.48-0.25H29.6
			c-0.7,0-1.22,0.09-1.61,0.29c-0.29,0.15-0.51,0.42-0.63,0.79c-0.11,0.32-0.15,0.76-0.15,1.3s0.05,0.97,0.15,1.3
			c0.12,0.39,0.36,0.66,0.73,0.85c0.34,0.17,0.82,0.25,1.5,0.25h5.3v14.32c0,0.46,0.02,0.8,0.05,1.03c0.03,0.25,0.14,0.54,0.29,0.85
			c0.19,0.34,0.49,0.59,0.91,0.73c0.39,0.12,0.9,0.19,1.53,0.19c0.62,0,1.14-0.06,1.53-0.19c0.43-0.14,0.76-0.39,0.93-0.73
			c0.15-0.31,0.26-0.59,0.29-0.83c0.03-0.23,0.05-0.56,0.05-1.02V32.02h5.27c0.7,0,1.22-0.09,1.61-0.29
			c0.29-0.15,0.51-0.42,0.63-0.79C48.08,30.6,48.13,30.18,48.13,29.64"/>
		<path class="st2" d="M87.09,27.73L87.09,27.73c-0.83-0.53-1.44-0.77-1.85-0.77s-0.79,0.11-1.1,0.32c-0.31,0.22-0.65,0.6-1.04,1.24
			l-4.26,6.83l-4.26-6.84c-0.4-0.62-0.76-1.03-1.11-1.27c-0.26-0.19-0.6-0.28-1.04-0.28c-0.43,0-1.07,0.29-1.98,0.9
			c-0.93,0.62-1.41,1.3-1.41,2.02c0,0.43,0.23,0.99,0.71,1.7l6.23,9.31v5.41c0,0.48,0.02,0.83,0.05,1.07
			c0.03,0.25,0.14,0.56,0.31,0.88c0.19,0.37,0.51,0.62,0.94,0.76c0.4,0.12,0.91,0.19,1.56,0.19c0.65,0,1.16-0.06,1.56-0.19
			c0.43-0.14,0.76-0.39,0.94-0.74c0.17-0.32,0.28-0.6,0.31-0.87c0.03-0.23,0.05-0.57,0.05-1.03v-5.47l6.23-9.31
			c0.48-0.71,0.71-1.27,0.71-1.7C88.63,29.15,88.14,28.45,87.09,27.73"/>
		<path class="st3" d="M102.55,36.81c-0.74-0.36-1.58-0.66-2.46-0.91c-0.88-0.25-1.7-0.43-2.44-0.54c-0.7-0.11-1.28-0.32-1.73-0.63
			c-0.42-0.28-0.62-0.63-0.62-1.07c0-0.45,0.17-0.77,0.51-1.02c0.37-0.26,0.83-0.4,1.41-0.4c0.57,0,1.05,0.11,1.39,0.32
			c0.12,0.09,0.26,0.22,0.42,0.36c0.23,0.22,0.32,0.29,0.37,0.32c0.65,0.42,1.19,0.63,1.67,0.63c0.79,0,1.56-0.53,2.27-1.58
			c0.51-0.73,0.74-1.31,0.74-1.76c0-0.48-0.32-1-0.99-1.62l-0.74-0.56c-0.4-0.34-1.08-0.65-2.09-0.97
			c-0.99-0.31-2.09-0.46-3.26-0.46c-2.26,0-4.06,0.66-5.39,1.99c-1.31,1.31-1.99,2.89-1.99,4.65c0,1.28,0.26,2.39,0.77,3.32
			c0.51,0.93,1.17,1.61,1.95,2.04c0.74,0.42,1.56,0.77,2.43,1.08c0.87,0.31,1.68,0.53,2.43,0.66c0.7,0.12,1.28,0.34,1.75,0.62
			c0.42,0.25,0.6,0.54,0.6,0.88c0,0.83-0.25,1.93-2.43,1.93c-0.37,0-0.8-0.14-1.25-0.42c-0.48-0.28-0.83-0.59-1.11-0.9
			c-1.04-1.03-1.84-1.53-2.46-1.53c-0.62,0-1.21,0.26-1.73,0.77c-0.9,0.88-1.33,1.59-1.33,2.16c0,0.56,0.28,1.17,0.82,1.85
			l0.25,0.31c0.43,0.6,1.17,1.24,2.22,1.87c0.53,0.34,1.22,0.63,2.05,0.87c0.83,0.23,1.73,0.34,2.66,0.34
			c1.82,0,3.57-0.54,5.18-1.59c0.85-0.54,1.54-1.33,2.07-2.33c0.53-0.99,0.79-2.16,0.79-3.46s-0.26-2.43-0.77-3.32
			C103.99,37.83,103.34,37.18,102.55,36.81"/>
		<path class="st1" d="M131.17,31.88c0.63-0.74,0.94-1.37,0.94-1.95c0-0.59-0.42-1.22-1.27-1.95c-0.83-0.73-1.51-1.07-2.1-1.07
			c-0.59,0-1.24,0.42-1.98,1.28c-1.53,1.78-3.46,3.99-5.92,6.75v-4.82c0-0.71-0.05-1.24-0.15-1.61c-0.29-0.83-1.19-1.27-2.67-1.27
			c-1.36,0-2.19,0.31-2.52,0.93c-0.17,0.32-0.28,0.6-0.31,0.87c-0.03,0.23-0.05,0.57-0.05,1.03v16.16c0,0.71,0.06,1.24,0.19,1.56
			c0.28,0.87,1.16,1.3,2.64,1.3c1.36,0,2.19-0.31,2.52-0.93c0.17-0.32,0.28-0.6,0.31-0.85c0.03-0.23,0.05-0.57,0.05-1.05v-4.93
			l5.92,6.73c0.76,0.88,1.41,1.31,1.99,1.31c0.57,0,1.25-0.36,2.09-1.07c0.85-0.73,1.27-1.37,1.27-1.95c0-0.57-0.34-1.22-1.04-1.99
			c-1.21-1.41-3.28-3.51-6.12-6.24l0.96-0.91C128.28,34.99,130.04,33.18,131.17,31.88"/>
		<path class="st4" d="M137.18,27.28c-1.36,0-2.19,0.31-2.52,0.93c-0.17,0.32-0.28,0.6-0.31,0.87c-0.03,0.23-0.05,0.57-0.05,1.03
			v16.16c0,0.71,0.06,1.24,0.19,1.56c0.28,0.87,1.16,1.3,2.64,1.3c1.36,0,2.19-0.31,2.52-0.93c0.17-0.32,0.28-0.6,0.31-0.85
			c0.03-0.23,0.05-0.57,0.05-1.05V30.14c0-0.71-0.05-1.24-0.15-1.61C139.56,27.7,138.66,27.28,137.18,27.28"/>
		<path class="st2" d="M160.88,27.87c-0.2-0.15-0.48-0.29-0.85-0.4c-0.36-0.11-0.83-0.15-1.42-0.15c-0.57,0-1.07,0.06-1.47,0.19
			c-0.43,0.14-0.77,0.42-0.99,0.82c-0.2,0.39-0.31,0.96-0.31,1.75v9.01c-1.5-1.96-4.08-5.44-7.71-10.38
			c-0.46-0.57-0.62-0.73-0.7-0.79c-0.17-0.17-0.43-0.29-0.82-0.42c-0.37-0.11-0.87-0.17-1.47-0.17c-0.6,0-1.11,0.06-1.51,0.19
			c-0.43,0.14-0.77,0.42-0.99,0.82c-0.2,0.39-0.31,0.96-0.31,1.75v16.22c0,0.46,0.02,0.8,0.05,1.05c0.03,0.26,0.14,0.56,0.31,0.88
			c0.32,0.63,1.13,0.94,2.46,0.94c1.36,0,2.19-0.31,2.52-0.93c0.17-0.32,0.28-0.6,0.31-0.85c0.03-0.23,0.05-0.57,0.05-1.05v-8.74
			c1.53,1.99,4.25,5.61,8.11,10.75c0.22,0.29,0.51,0.51,0.85,0.63c0.32,0.14,0.88,0.2,1.67,0.2c1.36,0,2.19-0.31,2.52-0.93
			c0.17-0.32,0.28-0.6,0.31-0.85c0.03-0.23,0.05-0.57,0.05-1.05V30.17c0-0.71-0.06-1.24-0.19-1.56
			C161.25,28.28,161.09,28.03,160.88,27.87"/>
		<path class="st2" d="M214.62,30.38c-2.18-2.07-4.73-3.12-7.6-3.12l-5.38-0.03l0,0c-1.36,0-2.19,0.31-2.52,0.93
			c-0.17,0.32-0.28,0.6-0.31,0.85c-0.03,0.23-0.05,0.57-0.05,1.05v16.16c0,0.9,0.12,1.54,0.39,2.01c0.36,0.59,1.14,0.87,2.44,0.87
			h5.31c3.03,0,5.64-1.1,7.77-3.24c2.13-2.16,3.21-4.77,3.21-7.8C217.9,35.03,216.8,32.45,214.62,30.38 M212.2,38.21
			c0,1.48-0.54,2.73-1.59,3.71c-1.07,0.99-2.27,1.48-3.6,1.48h-2.55V32.98h2.52c1.39,0,2.63,0.51,3.66,1.51
			C211.67,35.48,212.2,36.73,212.2,38.21"/>
		<path class="st1" d="M266.41,29.12c-0.03-0.26-0.14-0.56-0.31-0.88c-0.32-0.63-1.14-0.93-2.5-0.93c-1.33,0-2.18,0.29-2.56,0.9
			c-1.08,1.36-3.23,4.17-6.38,8.34l-6.38-8.37l-0.19-0.19c-0.15-0.17-0.43-0.32-0.87-0.48c-0.4-0.14-0.9-0.2-1.44-0.2
			c-1.34,0-2.16,0.29-2.52,0.9c-0.17,0.32-0.28,0.6-0.31,0.87c-0.03,0.23-0.05,0.57-0.05,1.03v16.13c0,0.48,0.02,0.83,0.05,1.08
			c0.03,0.28,0.14,0.56,0.31,0.85c0.34,0.62,1.14,0.93,2.46,0.93c1.34,0,2.16-0.31,2.5-0.93c0.17-0.31,0.28-0.59,0.31-0.85
			c0.03-0.23,0.05-0.57,0.05-1.03v-8.96c0.45,0.62,1.08,1.5,1.36,1.87c1.16,1.61,1.92,2.63,2.3,3.09l0.23,0.32
			c0.19,0.22,0.46,0.45,0.85,0.66c0.4,0.23,0.85,0.34,1.33,0.34c0.48,0,0.94-0.12,1.36-0.37c0.42-0.25,0.66-0.43,0.79-0.59
			l0.53-0.68c0.25-0.32,0.83-1.14,1.78-2.46c0.65-0.91,1.19-1.65,1.62-2.22v8.94c0,0.71,0.05,1.24,0.17,1.61
			c0.11,0.29,0.28,0.54,0.49,0.7c0.2,0.15,0.48,0.29,0.85,0.4c0.36,0.11,0.82,0.15,1.42,0.15c0.59,0,1.08-0.06,1.48-0.19
			c0.87-0.28,1.3-1.16,1.3-2.61V30.17C266.46,29.7,266.44,29.36,266.41,29.12"/>
		<path class="st3" d="M177.31,40.24c-1.84,0.59-3.8,1.28-5.84,2.07c-0.34-0.53-0.65-1.1-0.9-1.7c-1.59-3.89-1.78-7.21-1.68-9.19
			l2.55,3.2c0.68,0.83,1.84,1.14,2.83,0.73c0.99-0.42,1.61-1.45,1.48-2.52c-0.23-1.99-0.34-4.12-0.34-5.98
			c0.59,1.48,1.17,3.15,1.67,4.74c0.32,1.07,1.34,1.76,2.46,1.71c1.11-0.06,2.04-0.87,2.26-1.96c0.45-2.29,1.08-4.73,1.71-6.67
			c0.22,1.75,0.37,3.83,0.42,5.78c0.03,1.03,0.7,1.93,1.67,2.26c0.97,0.32,2.05-0.02,2.69-0.82c1.27-1.65,2.72-3.38,4-4.82
			c-0.59,2.16-1.45,4.73-2.32,6.38c-0.29,0.57-0.36,1.24-0.15,1.85s0.62,1.13,1.21,1.42c0.57,0.29,1.24,0.36,1.85,0.15
			c0.62-0.2,1.13-0.62,1.42-1.2c0.93-1.81,4.88-11.82,3.23-14.94c-0.45-0.85-1.24-1.41-2.16-1.51c-0.83-0.11-2.38-0.29-7,4.88
			c-0.43-3.32-1.17-5.5-2.21-6.47c-0.65-0.6-1.45-0.9-2.29-0.87c-0.87,0.05-2.84,0.14-4.87,5.98c-1.81-3.8-3.03-4.17-3.65-4.36
			c-0.96-0.29-1.95-0.09-2.72,0.54c-1.25,1.02-1.95,3.31-2.09,6.77c-0.68-0.91-1.82-1.41-2.97-1.28c-1.24,0.14-2.27,0.94-2.72,2.1
			c-0.6,1.59-0.91,3.88-0.87,6.3c0.08,3.18,0.79,6.5,2.05,9.62c0.25,0.59,0.53,1.17,0.83,1.71c-1.14,0.49-1.92,0.85-2.22,0.99
			c-1.22,0.57-1.73,2.02-1.16,3.24c0.28,0.59,0.77,1.03,1.38,1.25c0.6,0.22,1.27,0.19,1.85-0.09c0.02,0,1.34-0.63,3.37-1.48
			c2.78,2.39,6.52,3.85,10.8,4.17c0.6,0.05,1.22,0.08,1.82,0.08c5.7,0,10.78-2.07,12.65-5.14c1.19-1.96,1.13-4.16-0.14-6.21
			C192.98,37.3,187.26,37.07,177.31,40.24 M191.25,44.66c-1.21,1.98-6.2,3.04-9.93,2.75c-1.21-0.09-3.45-0.42-5.64-1.48
			c1.1-0.39,2.15-0.76,3.14-1.07c8.99-2.84,11.94-1.9,12.31-1.3C191.54,44.19,191.37,44.46,191.25,44.66"/>
		<path class="st4" d="M58.6,27.02c-1.38,0-2.72,0.28-4,0.83c-1.28,0.56-2.44,1.33-3.43,2.3c-0.99,0.97-1.79,2.19-2.39,3.63
			c-0.59,1.44-0.9,3-0.9,4.62c0,3.01,1.07,5.64,3.17,7.8c2.1,2.18,4.71,3.29,7.71,3.29c3.01,0,5.58-1.13,7.65-3.32
			c2.05-2.21,3.11-4.91,3.11-8.03c0-3.14-1.1-5.79-3.26-7.91C64.1,28.08,61.54,27.02,58.6,27.02z M58.69,43.45
			c-2.87,0-5.21-2.33-5.21-5.21s2.33-5.21,5.21-5.21c2.87,0,5.21,2.33,5.21,5.21S61.58,43.45,58.69,43.45z"/>
		<path class="st4" d="M238.08,30.2c-2.16-2.12-4.74-3.18-7.66-3.18c-1.38,0-2.72,0.28-4,0.83c-1.28,0.56-2.44,1.33-3.43,2.3
			c-0.99,0.97-1.79,2.19-2.38,3.61c-0.59,1.42-0.9,3-0.9,4.62c0,3.01,1.07,5.64,3.17,7.82c2.12,2.18,4.7,3.29,7.71,3.29
			s5.59-1.13,7.65-3.34c2.05-2.21,3.11-4.91,3.11-8.03C241.32,34.99,240.22,32.31,238.08,30.2z M230.51,43.45
			c-2.87,0-5.21-2.33-5.21-5.21s2.33-5.21,5.21-5.21c2.87,0,5.21,2.33,5.21,5.21S233.38,43.45,230.51,43.45z"/>
	</g>
	<g>
		<path d="M90.66,62.11c0.36,0,0.71,0.03,1.07,0.09s0.68,0.15,0.97,0.26s0.53,0.25,0.71,0.4c0.19,0.15,0.28,0.34,0.28,0.56
			c0,0.54-0.31,0.8-0.91,0.8c-0.14,0-0.28-0.02-0.42-0.06c-0.12-0.05-0.28-0.08-0.45-0.12c-0.17-0.05-0.39-0.08-0.65-0.12
			c-0.26-0.05-0.57-0.06-0.96-0.06c-0.8,0-1.42,0.28-1.87,0.82c-0.43,0.56-0.66,1.27-0.66,2.15c0,0.96,0.22,1.75,0.66,2.32
			c0.45,0.57,1.08,0.88,1.9,0.88c0.51,0,0.93-0.05,1.25-0.12c0.31-0.08,0.57-0.19,0.77-0.29c0.2-0.11,0.37-0.2,0.49-0.29
			c0.12-0.08,0.28-0.12,0.43-0.12c0.22,0,0.39,0.05,0.53,0.14S94,69.6,94,69.88c0,0.29-0.11,0.54-0.34,0.77
			c-0.23,0.22-0.51,0.4-0.85,0.54c-0.34,0.15-0.71,0.26-1.11,0.32c-0.4,0.08-0.76,0.11-1.1,0.11c-1.48,0-2.64-0.4-3.48-1.22
			s-1.27-1.98-1.27-3.48c0-0.65,0.09-1.25,0.31-1.84c0.2-0.59,0.51-1.08,0.91-1.53c0.4-0.43,0.9-0.79,1.5-1.05
			C89.19,62.25,89.89,62.11,90.66,62.11"/>
		<path d="M95.68,70.33c-0.05-0.43-0.08-0.94-0.09-1.56c-0.02-0.62-0.02-1.34-0.02-2.21c0-0.85,0-1.54,0.02-2.07
			c0-0.53,0.05-0.99,0.11-1.39c0.06-0.49,0.15-0.82,0.28-0.97c0.12-0.15,0.29-0.22,0.51-0.22c0.14,0,0.28,0.02,0.4,0.03
			c0.12,0.02,0.22,0.08,0.31,0.15c0.09,0.08,0.17,0.19,0.22,0.34s0.08,0.36,0.08,0.6c0,0.05,0,0.09,0.02,0.15
			c0,0.05,0,0.09,0.02,0.15c0.02,0.06,0.02,0.12,0.02,0.19c0.32-0.42,0.71-0.77,1.13-1.07c0.42-0.29,0.9-0.43,1.44-0.43
			c0.73,0,1.08,0.29,1.08,0.9c0,0.22-0.05,0.4-0.14,0.54c-0.09,0.15-0.22,0.26-0.39,0.36c-0.17,0.09-0.36,0.15-0.57,0.22
			c-0.22,0.05-0.45,0.09-0.71,0.15c-0.39,0.08-0.76,0.22-1.1,0.42s-0.57,0.45-0.7,0.76c0,0.23,0,0.4,0.02,0.51
			c0.02,0.11,0.02,0.2,0.02,0.28c0,0.08,0.02,0.15,0.02,0.23v0.4c0,0.62-0.02,1.2-0.03,1.75c-0.03,0.54-0.05,1.13-0.08,1.76
			c-0.02,0.29-0.05,0.53-0.11,0.68c-0.06,0.15-0.12,0.28-0.2,0.37c-0.08,0.08-0.17,0.14-0.26,0.15c-0.09,0.02-0.2,0.03-0.29,0.03
			c-0.34,0-0.57-0.08-0.68-0.23C95.82,71.16,95.73,70.84,95.68,70.33"/>
		<path d="M106.71,68.09c-0.43,0-0.88-0.03-1.34-0.09c-0.46-0.06-0.97-0.22-1.53-0.43c0.11,0.74,0.42,1.31,0.93,1.68
			c0.51,0.39,1.24,0.57,2.19,0.57c0.34,0,0.65-0.02,0.93-0.06c0.28-0.05,0.51-0.09,0.73-0.15c0.2-0.06,0.39-0.11,0.54-0.15
			c0.15-0.05,0.31-0.06,0.43-0.06c0.17,0,0.34,0.05,0.49,0.15c0.15,0.11,0.23,0.28,0.23,0.53c0,0.31-0.12,0.56-0.37,0.76
			s-0.56,0.36-0.91,0.46c-0.36,0.11-0.74,0.2-1.14,0.23c-0.4,0.05-0.76,0.06-1.07,0.06c-0.73,0-1.38-0.09-1.99-0.29
			c-0.6-0.2-1.13-0.49-1.56-0.9c-0.43-0.4-0.79-0.9-1.02-1.47c-0.25-0.59-0.37-1.27-0.37-2.05c0-0.76,0.12-1.42,0.36-2.01
			c0.23-0.59,0.57-1.08,0.97-1.48c0.42-0.4,0.91-0.71,1.47-0.91c0.57-0.2,1.17-0.31,1.84-0.31c0.51,0,1,0.06,1.5,0.2
			c0.48,0.14,0.91,0.34,1.28,0.6s0.66,0.6,0.9,1.02c0.23,0.42,0.34,0.9,0.34,1.44c0,0.49-0.09,0.91-0.28,1.25
			c-0.19,0.34-0.45,0.62-0.77,0.82c-0.34,0.2-0.74,0.36-1.21,0.46C107.81,68.03,107.3,68.09,106.71,68.09 M106.59,63.84
			c-0.32,0-0.65,0.05-0.96,0.12c-0.31,0.08-0.59,0.2-0.83,0.39c-0.25,0.17-0.46,0.4-0.63,0.7c-0.17,0.29-0.29,0.65-0.36,1.07
			c0.46,0.2,0.91,0.36,1.36,0.43c0.43,0.08,0.9,0.12,1.39,0.12c0.73,0,1.25-0.09,1.61-0.26c0.36-0.17,0.53-0.49,0.53-0.96
			c0-0.43-0.15-0.8-0.48-1.11C107.88,64,107.34,63.84,106.59,63.84"/>
		<path d="M119.78,71.52c-0.2,0-0.36-0.03-0.46-0.09c-0.11-0.06-0.2-0.15-0.26-0.26c-0.06-0.11-0.11-0.25-0.12-0.39
			c-0.03-0.15-0.05-0.31-0.06-0.48c-0.31,0.39-0.7,0.7-1.17,0.96s-1.1,0.39-1.84,0.39c-0.48,0-0.96-0.08-1.45-0.22
			c-0.49-0.14-0.94-0.39-1.34-0.73c-0.4-0.36-0.73-0.82-0.99-1.41c-0.26-0.59-0.39-1.33-0.39-2.21c0-0.7,0.09-1.34,0.26-1.96
			c0.17-0.62,0.43-1.14,0.77-1.61c0.34-0.46,0.79-0.82,1.31-1.08c0.53-0.26,1.14-0.4,1.85-0.4c0.62,0,1.17,0.11,1.67,0.34
			c0.49,0.23,0.93,0.6,1.31,1.11c0-0.15,0-0.29,0.02-0.45c0.02-0.15,0.05-0.29,0.11-0.42c0.06-0.12,0.14-0.23,0.26-0.31
			c0.12-0.08,0.29-0.12,0.49-0.12c0.19,0,0.36,0.08,0.51,0.22s0.25,0.46,0.28,0.96c0.03,0.65,0.06,1.22,0.08,1.75
			c0.02,0.53,0.03,1.05,0.03,1.59c0,0.66,0,1.28-0.02,1.85c-0.02,0.56-0.05,1.16-0.09,1.79c-0.03,0.28-0.06,0.51-0.11,0.66
			c-0.05,0.17-0.09,0.29-0.15,0.37c-0.06,0.08-0.14,0.14-0.22,0.15C119.95,71.5,119.87,71.52,119.78,71.52 M118.79,66.87
			c0-0.63-0.09-1.16-0.28-1.56c-0.19-0.4-0.43-0.71-0.71-0.94c-0.29-0.23-0.6-0.39-0.93-0.46c-0.32-0.08-0.63-0.12-0.91-0.12
			c-0.43,0-0.82,0.08-1.13,0.23c-0.31,0.15-0.57,0.37-0.76,0.65c-0.19,0.28-0.34,0.6-0.43,0.97c-0.09,0.37-0.14,0.77-0.14,1.22
			c0,1.08,0.23,1.87,0.71,2.38c0.48,0.51,1.11,0.77,1.92,0.77c0.48,0,0.88-0.08,1.22-0.25c0.34-0.17,0.62-0.39,0.82-0.66
			c0.22-0.28,0.37-0.62,0.48-1C118.75,67.7,118.79,67.3,118.79,66.87"/>
		<path d="M124.34,70.27c-0.03-0.77-0.06-1.68-0.06-2.73s-0.02-2.26-0.02-3.6c-0.12,0.02-0.26,0.02-0.43,0.02h-0.39
			c-0.22,0-0.42,0-0.59-0.02c-0.17-0.02-0.34-0.05-0.46-0.11c-0.14-0.06-0.23-0.15-0.31-0.26s-0.11-0.28-0.11-0.48
			c0-0.59,0.43-0.88,1.31-0.88h0.49c0.2,0,0.36,0.02,0.49,0.03c0-0.65,0.02-1.16,0.03-1.56c0.03-0.39,0.08-0.7,0.14-0.91
			c0.06-0.22,0.15-0.36,0.28-0.42c0.12-0.06,0.26-0.09,0.45-0.09c0.2,0,0.36,0.06,0.48,0.2c0.12,0.14,0.22,0.31,0.28,0.51
			s0.11,0.43,0.12,0.7c0.02,0.26,0.03,0.51,0.03,0.76c0,0.17,0,0.32-0.02,0.46c-0.02,0.14-0.02,0.26-0.02,0.37
			c0.17-0.05,0.36-0.08,0.53-0.08c0.19,0,0.36-0.02,0.53-0.02c0.45,0,0.8,0.08,1.05,0.22c0.25,0.14,0.37,0.37,0.37,0.68
			c0,0.2-0.05,0.36-0.12,0.46c-0.08,0.11-0.2,0.2-0.34,0.26c-0.14,0.06-0.31,0.09-0.49,0.12s-0.4,0.03-0.62,0.03h-0.42
			c-0.15,0-0.31-0.02-0.43-0.03v1.78c0,0.54,0,1.05-0.02,1.54c-0.02,0.49-0.03,0.99-0.03,1.47c-0.02,0.49-0.03,1-0.06,1.56
			c-0.02,0.29-0.05,0.53-0.08,0.68c-0.05,0.15-0.09,0.28-0.17,0.37c-0.08,0.08-0.15,0.14-0.25,0.15c-0.09,0.02-0.2,0.03-0.32,0.03
			c-0.22,0-0.4-0.08-0.56-0.23C124.45,71.09,124.37,70.76,124.34,70.27"/>
		<path d="M130.98,58.64c0.28,0,0.54,0.11,0.77,0.32c0.23,0.22,0.36,0.48,0.36,0.79c0,0.29-0.12,0.54-0.37,0.76
			c-0.25,0.22-0.53,0.32-0.82,0.32c-0.26,0-0.49-0.11-0.73-0.32s-0.34-0.48-0.34-0.79c0-0.29,0.11-0.54,0.34-0.76
			S130.69,58.64,130.98,58.64 M130.16,70.31c-0.03-0.45-0.05-0.97-0.06-1.54c-0.02-0.57-0.03-1.22-0.03-1.92
			c0-0.87,0-1.61,0.02-2.22c0.02-0.62,0.05-1.13,0.09-1.51c0.06-0.4,0.14-0.7,0.26-0.88c0.12-0.19,0.29-0.28,0.51-0.28
			c0.2,0,0.39,0.08,0.56,0.22c0.15,0.15,0.25,0.46,0.28,0.96c0.08,1.28,0.11,2.52,0.11,3.71c0,0.62-0.02,1.17-0.03,1.71
			c-0.03,0.53-0.05,1.11-0.08,1.75c-0.02,0.29-0.05,0.53-0.08,0.68c-0.05,0.15-0.11,0.28-0.17,0.37c-0.06,0.09-0.15,0.14-0.25,0.15
			c-0.09,0.02-0.2,0.03-0.32,0.03c-0.22,0-0.4-0.08-0.54-0.23C130.27,71.15,130.18,70.81,130.16,70.31"/>
		<path d="M138.47,63.66c-0.45,0-0.85,0.08-1.22,0.22c-0.37,0.14-0.77,0.37-1.22,0.66v1.13c0,0.49,0,1.03-0.02,1.61
			c-0.02,0.59-0.03,1.14-0.03,1.71c-0.02,0.56-0.03,1.03-0.08,1.41c-0.03,0.25-0.05,0.43-0.08,0.57c-0.03,0.14-0.08,0.25-0.12,0.32
			c-0.06,0.08-0.12,0.12-0.22,0.14c-0.09,0.02-0.22,0.03-0.36,0.03c-0.14,0-0.26-0.02-0.36-0.03s-0.17-0.06-0.23-0.12
			c-0.06-0.06-0.11-0.17-0.15-0.31s-0.06-0.31-0.09-0.56c-0.03-0.22-0.05-0.51-0.06-0.88c-0.02-0.37-0.03-0.77-0.05-1.2
			c-0.02-0.43-0.02-0.87-0.03-1.31c0-0.45-0.02-0.85-0.02-1.24c0-0.62,0.02-1.13,0.03-1.51c0.02-0.39,0.05-0.74,0.09-1.05
			c0.08-0.51,0.17-0.83,0.29-0.97c0.12-0.14,0.29-0.2,0.49-0.2c0.31,0,0.54,0.08,0.68,0.26c0.14,0.19,0.25,0.45,0.28,0.85
			c0.45-0.39,0.94-0.7,1.45-0.93c0.53-0.23,1.05-0.36,1.61-0.36c0.53,0,1,0.12,1.44,0.37c0.43,0.25,0.79,0.63,1.07,1.19
			c0.17,0.32,0.29,0.7,0.39,1.08c0.08,0.4,0.14,0.82,0.19,1.25c0.02,0.2,0.03,0.39,0.03,0.57s0.02,0.39,0.03,0.6
			c0,0.22,0.02,0.45,0.02,0.73v0.96c0,0.39,0,0.76-0.02,1.1c-0.02,0.34-0.05,0.63-0.11,0.9c-0.06,0.25-0.15,0.45-0.28,0.59
			c-0.14,0.14-0.31,0.22-0.56,0.22c-0.56,0-0.85-0.26-0.88-0.8v-0.46c0-0.28,0-0.6-0.02-0.96s-0.02-0.74-0.02-1.11
			s-0.02-0.7-0.03-0.93c-0.02-0.2-0.03-0.4-0.05-0.63c-0.02-0.23-0.05-0.45-0.08-0.68c-0.03-0.23-0.08-0.45-0.12-0.66
			c-0.05-0.22-0.11-0.4-0.19-0.57c-0.17-0.4-0.39-0.66-0.65-0.77C139.03,63.7,138.77,63.66,138.47,63.66"/>
		<path d="M147.98,73.96c0.57,0,1.05-0.11,1.45-0.34c0.4-0.23,0.71-0.54,0.96-0.97c0.25-0.42,0.42-0.93,0.53-1.51
			c0.11-0.59,0.15-1.25,0.15-2.01c-0.11,0.39-0.26,0.73-0.48,0.99c-0.22,0.26-0.45,0.48-0.73,0.65c-0.28,0.17-0.59,0.28-0.93,0.36
			c-0.34,0.08-0.7,0.11-1.07,0.11c-0.56,0-1.1-0.08-1.59-0.23c-0.49-0.15-0.94-0.4-1.31-0.76c-0.37-0.36-0.66-0.77-0.9-1.31
			c-0.22-0.53-0.32-1.17-0.32-1.92c0-0.73,0.11-1.37,0.32-1.99c0.22-0.6,0.53-1.13,0.93-1.56c0.42-0.43,0.91-0.77,1.5-1.02
			c0.59-0.25,1.25-0.37,2.01-0.37c0.4,0,0.76,0.03,1.07,0.11c0.31,0.08,0.59,0.17,0.83,0.29c0.25,0.12,0.46,0.26,0.65,0.43
			c0.19,0.17,0.37,0.36,0.53,0.54c0.46,0.59,0.8,1.28,1,2.09c0.2,0.8,0.31,1.76,0.31,2.89c0,0.83-0.08,1.68-0.22,2.55
			c-0.14,0.87-0.39,1.65-0.76,2.35c-0.37,0.7-0.88,1.28-1.51,1.71c-0.65,0.45-1.48,0.66-2.49,0.66c-0.19,0-0.39-0.02-0.62-0.03
			c-0.23-0.02-0.46-0.05-0.7-0.08c-0.23-0.03-0.48-0.09-0.71-0.15c-0.23-0.06-0.45-0.15-0.65-0.26c-0.25-0.14-0.43-0.26-0.59-0.39
			s-0.22-0.32-0.22-0.6c0-0.23,0.05-0.45,0.15-0.63c0.11-0.19,0.28-0.28,0.54-0.28c0.12,0,0.26,0.03,0.4,0.11
			c0.14,0.08,0.32,0.15,0.54,0.23c0.22,0.08,0.46,0.15,0.77,0.23C147.17,73.91,147.54,73.96,147.98,73.96 M148.07,69.56
			c0.48,0,0.88-0.09,1.22-0.26c0.34-0.17,0.6-0.42,0.82-0.71c0.22-0.29,0.37-0.62,0.48-0.99c0.11-0.37,0.15-0.73,0.15-1.1
			c0-0.31-0.05-0.62-0.12-0.93c-0.08-0.31-0.22-0.6-0.39-0.85c-0.19-0.26-0.43-0.46-0.76-0.62s-0.71-0.23-1.19-0.23
			c-0.8,0-1.45,0.25-1.95,0.73c-0.49,0.49-0.74,1.2-0.74,2.16c0,0.9,0.22,1.58,0.66,2.07C146.69,69.33,147.3,69.56,148.07,69.56"/>
		<path d="M161.62,61.89c0.26,0,0.59,0.02,0.97,0.06c0.39,0.05,0.76,0.12,1.11,0.23c0.36,0.12,0.66,0.28,0.91,0.48
			c0.26,0.2,0.39,0.46,0.39,0.79c0,0.19-0.05,0.34-0.15,0.48c-0.11,0.14-0.26,0.2-0.48,0.2c-0.15,0-0.34-0.03-0.54-0.08
			s-0.42-0.11-0.66-0.17c-0.25-0.06-0.49-0.12-0.77-0.17c-0.28-0.05-0.57-0.08-0.87-0.08c-0.51,0-0.93,0.08-1.25,0.23
			c-0.32,0.15-0.48,0.4-0.48,0.76c0,0.2,0.06,0.36,0.17,0.49c0.11,0.14,0.28,0.25,0.48,0.36c0.2,0.11,0.43,0.19,0.71,0.26
			s0.57,0.15,0.87,0.22c0.39,0.09,0.76,0.2,1.13,0.32s0.71,0.29,1,0.51c0.29,0.22,0.53,0.48,0.71,0.8c0.19,0.32,0.28,0.73,0.28,1.2
			c0,0.9-0.34,1.62-1.02,2.15s-1.68,0.79-3.03,0.79c-0.29,0-0.65-0.02-1.05-0.06s-0.79-0.12-1.13-0.23s-0.66-0.28-0.91-0.49
			c-0.25-0.22-0.37-0.49-0.37-0.85c0-0.25,0.06-0.43,0.17-0.56c0.12-0.12,0.26-0.19,0.43-0.19c0.14,0,0.28,0.05,0.42,0.12
			c0.15,0.08,0.32,0.17,0.53,0.28c0.2,0.11,0.46,0.19,0.76,0.28c0.29,0.08,0.65,0.12,1.08,0.12c0.15,0,0.37-0.02,0.62-0.03
			c0.25-0.02,0.51-0.08,0.76-0.15c0.25-0.08,0.46-0.2,0.65-0.36c0.17-0.15,0.26-0.37,0.26-0.65c0-0.22-0.06-0.4-0.19-0.56
			c-0.12-0.15-0.29-0.28-0.49-0.39c-0.2-0.11-0.45-0.2-0.73-0.28c-0.28-0.08-0.57-0.15-0.87-0.25c-0.36-0.09-0.71-0.2-1.07-0.32
			c-0.36-0.12-0.68-0.28-0.97-0.48c-0.29-0.2-0.53-0.45-0.71-0.74c-0.19-0.29-0.28-0.66-0.28-1.11c0-0.42,0.09-0.8,0.26-1.16
			c0.17-0.36,0.42-0.68,0.73-0.94c0.32-0.26,0.7-0.48,1.14-0.62C160.58,61.97,161.08,61.89,161.62,61.89"/>
		<path d="M179.15,70.9c-0.08-0.2-0.12-0.43-0.14-0.7s-0.03-0.57-0.03-0.96c0-0.26,0-0.48,0.02-0.63c0-0.15,0.02-0.29,0.02-0.4
			c0-0.12,0-0.23,0.02-0.36c0.02-0.12,0.02-0.28,0.02-0.48c0-0.43-0.02-0.85-0.03-1.3c-0.02-0.43-0.08-0.82-0.19-1.17
			c-0.11-0.36-0.28-0.63-0.51-0.85c-0.23-0.22-0.57-0.32-1-0.32c-0.74,0-1.33,0.36-1.75,1.07c-0.42,0.71-0.66,1.84-0.76,3.38
			c-0.03,0.49-0.03,0.93-0.03,1.33c0,0.4-0.03,0.74-0.08,1.03s-0.14,0.51-0.26,0.66c-0.12,0.15-0.34,0.23-0.63,0.23
			c-0.26,0-0.46-0.08-0.59-0.22c-0.12-0.14-0.22-0.36-0.26-0.63c-0.06-0.28-0.08-0.62-0.09-1.02c0-0.4-0.03-0.87-0.06-1.41
			c-0.03-0.59-0.09-1.14-0.17-1.68c-0.08-0.54-0.2-1-0.39-1.42c-0.17-0.4-0.42-0.74-0.71-0.97c-0.29-0.25-0.68-0.37-1.14-0.37
			c-0.45,0-0.77,0.11-1.02,0.32c-0.25,0.22-0.42,0.49-0.53,0.85c-0.11,0.36-0.17,0.74-0.19,1.17s-0.03,0.87-0.03,1.31
			c0,0.22,0,0.39,0.02,0.48c0.02,0.09,0.02,0.2,0.02,0.28c0,0.08,0,0.2,0.02,0.32c0.02,0.12,0.02,0.34,0.02,0.62
			c0,0.4-0.02,0.76-0.03,1.05s-0.06,0.54-0.14,0.76c-0.08,0.25-0.2,0.39-0.36,0.45c-0.15,0.06-0.28,0.08-0.4,0.08
			c-0.37,0-0.62-0.14-0.73-0.4s-0.17-0.66-0.19-1.17c0-0.28,0-0.6-0.02-0.94c-0.02-0.34-0.02-0.77-0.02-1.27v-0.63
			c0-0.19,0-0.36,0.02-0.53c0-0.17,0.02-0.34,0.02-0.53c0-0.17,0.02-0.39,0.03-0.62c0.03-0.74,0.17-1.34,0.4-1.78
			c0.23-0.43,0.51-0.79,0.82-1.02c0.32-0.23,0.66-0.39,1.02-0.45c0.37-0.06,0.7-0.09,1-0.09c0.66,0,1.22,0.09,1.67,0.29
			c0.45,0.2,0.82,0.45,1.11,0.77c0.28,0.31,0.49,0.68,0.63,1.08c0.14,0.4,0.23,0.82,0.28,1.22c0.05-0.4,0.15-0.8,0.29-1.2
			c0.14-0.4,0.39-0.76,0.68-1.07c0.29-0.31,0.68-0.56,1.16-0.76c0.48-0.2,1.07-0.29,1.76-0.29c0.32,0,0.66,0.03,1.02,0.09
			c0.36,0.06,0.66,0.22,0.96,0.45c0.29,0.23,0.54,0.56,0.74,1c0.2,0.43,0.32,1.02,0.36,1.75c0.02,0.23,0.02,0.43,0.03,0.62
			c0,0.17,0.02,0.36,0.02,0.53s0.02,0.36,0.02,0.53v0.63c0,0.49,0,0.93-0.02,1.27c0,0.36-0.02,0.66-0.02,0.94
			c0,0.23-0.02,0.45-0.03,0.63c-0.02,0.2-0.06,0.36-0.12,0.49c-0.06,0.14-0.15,0.25-0.26,0.32c-0.12,0.08-0.28,0.12-0.51,0.12
			c-0.2,0-0.37-0.05-0.48-0.12C179.32,71.24,179.23,71.1,179.15,70.9"/>
		<path d="M183.93,58.64c0.28,0,0.54,0.11,0.77,0.32c0.23,0.22,0.36,0.48,0.36,0.79c0,0.29-0.12,0.54-0.37,0.76
			c-0.25,0.22-0.53,0.32-0.82,0.32c-0.26,0-0.49-0.11-0.73-0.32c-0.23-0.22-0.34-0.48-0.34-0.79c0-0.29,0.11-0.54,0.34-0.76
			C183.39,58.74,183.63,58.64,183.93,58.64 M183.11,70.31c-0.03-0.45-0.05-0.97-0.06-1.54c-0.02-0.57-0.03-1.22-0.03-1.92
			c0-0.87,0-1.61,0.02-2.22c0.02-0.62,0.05-1.13,0.11-1.51c0.06-0.4,0.14-0.7,0.26-0.88c0.12-0.19,0.29-0.28,0.51-0.28
			c0.2,0,0.39,0.08,0.56,0.22c0.15,0.15,0.25,0.46,0.28,0.96c0.08,1.28,0.11,2.52,0.11,3.71c0,0.62-0.02,1.17-0.03,1.71
			c-0.03,0.53-0.05,1.11-0.08,1.75c-0.02,0.29-0.05,0.53-0.08,0.68c-0.05,0.15-0.11,0.28-0.17,0.37c-0.08,0.08-0.15,0.14-0.25,0.15
			c-0.09,0.02-0.2,0.03-0.32,0.03c-0.22,0-0.4-0.08-0.56-0.23C183.22,71.15,183.14,70.81,183.11,70.31"/>
		<path d="M187.23,70.39c-0.02-0.43-0.03-0.96-0.03-1.54c0-0.59-0.02-1.22-0.03-1.9c-0.02-0.68-0.02-1.41-0.02-2.16
			s-0.02-1.53-0.02-2.32c0-0.87,0-1.61,0.02-2.24c0.02-0.63,0.05-1.13,0.11-1.54c0.06-0.4,0.14-0.7,0.26-0.9
			c0.12-0.19,0.29-0.28,0.51-0.28c0.2,0,0.39,0.06,0.56,0.2c0.15,0.14,0.25,0.45,0.28,0.93c0.05,0.88,0.08,1.79,0.09,2.73
			c0.02,0.94,0.02,1.87,0.02,2.8v1.59c0,0.51,0,1-0.02,1.5c-0.02,0.49-0.03,1-0.03,1.51c-0.02,0.51-0.03,1.05-0.05,1.59
			c-0.02,0.29-0.05,0.53-0.08,0.68c-0.05,0.15-0.11,0.28-0.17,0.37c-0.08,0.08-0.15,0.14-0.25,0.15c-0.09,0.02-0.2,0.03-0.32,0.03
			c-0.22,0-0.4-0.08-0.56-0.23C187.34,71.21,187.25,70.89,187.23,70.39"/>
		<path d="M195.45,68.09c-0.43,0-0.88-0.03-1.34-0.09c-0.46-0.06-0.97-0.22-1.53-0.43c0.11,0.74,0.42,1.31,0.93,1.68
			c0.51,0.39,1.24,0.57,2.19,0.57c0.34,0,0.65-0.02,0.93-0.06c0.28-0.05,0.51-0.09,0.73-0.15c0.2-0.06,0.39-0.11,0.56-0.15
			c0.15-0.05,0.31-0.06,0.43-0.06c0.17,0,0.34,0.05,0.49,0.15s0.23,0.28,0.23,0.53c0,0.31-0.12,0.56-0.37,0.76
			c-0.25,0.2-0.56,0.36-0.91,0.46c-0.36,0.12-0.74,0.2-1.14,0.23c-0.4,0.05-0.76,0.06-1.07,0.06c-0.73,0-1.38-0.09-1.98-0.29
			c-0.6-0.2-1.13-0.49-1.56-0.9c-0.43-0.4-0.79-0.9-1.02-1.47c-0.25-0.59-0.37-1.27-0.37-2.05c0-0.76,0.12-1.42,0.36-2.01
			c0.23-0.59,0.57-1.08,0.97-1.48c0.42-0.4,0.91-0.71,1.47-0.91c0.57-0.2,1.17-0.31,1.84-0.31c0.51,0,1,0.06,1.5,0.2
			c0.49,0.14,0.91,0.34,1.28,0.6c0.37,0.26,0.66,0.6,0.9,1.02c0.23,0.4,0.34,0.9,0.34,1.44c0,0.49-0.09,0.91-0.28,1.25
			c-0.19,0.34-0.45,0.62-0.77,0.82c-0.32,0.2-0.74,0.36-1.21,0.46C196.53,68.03,196.02,68.09,195.45,68.09 M195.31,63.84
			c-0.32,0-0.65,0.05-0.96,0.12c-0.31,0.08-0.59,0.2-0.83,0.39c-0.25,0.17-0.46,0.4-0.63,0.7c-0.17,0.29-0.29,0.65-0.36,1.07
			c0.46,0.2,0.91,0.36,1.36,0.43c0.43,0.08,0.9,0.12,1.39,0.12c0.73,0,1.25-0.09,1.61-0.26c0.36-0.17,0.53-0.49,0.53-0.96
			c0-0.43-0.17-0.8-0.48-1.11C196.61,64,196.07,63.84,195.31,63.84"/>
		<path d="M204.23,61.89c0.26,0,0.59,0.02,0.97,0.06c0.39,0.05,0.76,0.12,1.11,0.23c0.36,0.12,0.66,0.28,0.91,0.48
			c0.25,0.2,0.39,0.46,0.39,0.79c0,0.19-0.05,0.34-0.15,0.48s-0.26,0.2-0.48,0.2c-0.15,0-0.34-0.03-0.54-0.08s-0.42-0.11-0.66-0.17
			c-0.23-0.06-0.49-0.12-0.77-0.17c-0.28-0.05-0.57-0.08-0.87-0.08c-0.51,0-0.93,0.08-1.25,0.23c-0.32,0.15-0.48,0.4-0.48,0.76
			c0,0.2,0.06,0.36,0.17,0.49c0.12,0.14,0.28,0.25,0.48,0.36c0.2,0.11,0.43,0.19,0.71,0.26c0.28,0.08,0.57,0.15,0.87,0.22
			c0.37,0.09,0.76,0.2,1.13,0.32c0.37,0.12,0.71,0.29,0.99,0.51c0.29,0.22,0.53,0.48,0.71,0.8c0.19,0.32,0.28,0.73,0.28,1.2
			c0,0.9-0.34,1.62-1.02,2.15s-1.68,0.79-3.03,0.79c-0.29,0-0.65-0.02-1.05-0.06c-0.4-0.05-0.79-0.12-1.13-0.23
			c-0.34-0.11-0.66-0.28-0.91-0.49s-0.37-0.49-0.37-0.85c0-0.25,0.06-0.43,0.17-0.56c0.11-0.12,0.26-0.19,0.43-0.19
			c0.14,0,0.28,0.05,0.42,0.12c0.14,0.08,0.32,0.17,0.53,0.28c0.2,0.09,0.46,0.19,0.76,0.28c0.29,0.08,0.65,0.12,1.08,0.12
			c0.15,0,0.37-0.02,0.62-0.03c0.25-0.02,0.51-0.08,0.76-0.15c0.25-0.08,0.46-0.2,0.65-0.36c0.17-0.15,0.26-0.37,0.26-0.65
			c0-0.22-0.06-0.4-0.19-0.56c-0.12-0.15-0.29-0.28-0.49-0.39c-0.2-0.11-0.45-0.2-0.73-0.28c-0.28-0.08-0.57-0.15-0.87-0.25
			c-0.36-0.09-0.71-0.2-1.07-0.32c-0.36-0.12-0.68-0.28-0.97-0.48c-0.29-0.2-0.53-0.45-0.71-0.74c-0.19-0.29-0.28-0.66-0.28-1.11
			c0-0.42,0.09-0.8,0.26-1.16s0.42-0.68,0.73-0.94c0.32-0.26,0.7-0.48,1.14-0.62C203.18,61.97,203.69,61.89,204.23,61.89"/>
	</g>
	<path d="M274.51,48.22c-0.49,0.51-1.11,0.76-1.82,0.76c-0.71,0-1.31-0.25-1.81-0.76c-0.49-0.49-0.74-1.11-0.74-1.82
		c0-0.71,0.25-1.31,0.76-1.81c0.49-0.49,1.1-0.74,1.81-0.74c0.71,0,1.31,0.25,1.82,0.74c0.49,0.49,0.76,1.1,0.76,1.81
		C275.25,47.11,275,47.71,274.51,48.22 M271.12,44.84c-0.43,0.43-0.65,0.94-0.65,1.56s0.22,1.14,0.63,1.58
		c0.43,0.43,0.94,0.65,1.56,0.65s1.13-0.22,1.56-0.65c0.43-0.43,0.65-0.96,0.65-1.58c0-0.6-0.22-1.13-0.65-1.56
		c-0.43-0.43-0.96-0.65-1.56-0.65C272.08,44.19,271.56,44.41,271.12,44.84 M272.64,44.98c0.36,0,0.6,0.03,0.77,0.11
		c0.29,0.12,0.43,0.36,0.43,0.71c0,0.25-0.09,0.43-0.28,0.56c-0.09,0.06-0.23,0.11-0.4,0.14c0.22,0.03,0.39,0.12,0.48,0.28
		c0.11,0.15,0.15,0.29,0.15,0.43v0.2c0,0.06,0,0.14,0,0.22s0.02,0.12,0.03,0.15l0.02,0.03h-0.46c0-0.02,0-0.02,0-0.03
		c0-0.02,0-0.02-0.02-0.03l-0.02-0.09v-0.22c0-0.32-0.09-0.54-0.26-0.65c-0.11-0.06-0.29-0.09-0.56-0.09h-0.39v1.11h-0.49V45h0.99
		V44.98z M273.18,45.43c-0.12-0.08-0.32-0.11-0.6-0.11h-0.42v1.02h0.45c0.22,0,0.37-0.02,0.48-0.06c0.2-0.08,0.29-0.23,0.29-0.45
		C273.36,45.64,273.3,45.51,273.18,45.43"/>
</g>
</svg>
